<?xml version="1.0" encoding="UTF-8"?><svg id="Layer_2" xmlns="http://www.w3.org/2000/svg" width="168.9" height="169" xmlns:xlink="http://www.w3.org/1999/xlink" viewBox="0 0 168.9 169"><defs><style>.cls-1{fill:url(#linear-gradient-2);}.cls-2{fill:#fff;}.cls-3{fill:url(#linear-gradient-4);}.cls-4{fill:url(#linear-gradient-7);}.cls-4,.cls-5{stroke:#fff;stroke-miterlimit:10;}.cls-6{fill:url(#linear-gradient-3);}.cls-7{fill:url(#linear-gradient-5);}.cls-8{fill:url(#linear-gradient-9);}.cls-9{fill:url(#linear-gradient-6);}.cls-10{fill:gray;}.cls-5{fill:url(#linear-gradient-8);stroke-width:2px;}.cls-11{fill:url(#linear-gradient);}</style><linearGradient id="linear-gradient" x1="7.96" y1="23.76" x2="159.94" y2="23.76" gradientUnits="userSpaceOnUse"><stop offset="0" stop-color="#67349d"/><stop offset="1" stop-color="#e062b5"/></linearGradient><linearGradient id="linear-gradient-2" x1=".1" y1="66.06" x2="168.9" y2="66.06" xlink:href="#linear-gradient"/><linearGradient id="linear-gradient-3" x1="0" y1="91.41" x2="168.85" y2="91.41" xlink:href="#linear-gradient"/><linearGradient id="linear-gradient-4" x1="2.09" y1="114.32" x2="166.91" y2="114.32" xlink:href="#linear-gradient"/><linearGradient id="linear-gradient-5" x1="10.53" y1="135.67" x2="158.47" y2="135.67" xlink:href="#linear-gradient"/><linearGradient id="linear-gradient-6" x1="31.45" y1="159.63" x2="137.55" y2="159.63" xlink:href="#linear-gradient"/><linearGradient id="linear-gradient-7" x1="84.95" y1="107.12" x2="84.95" y2="86.63" gradientTransform="translate(49.59 -27.02) rotate(25.32)" xlink:href="#linear-gradient"/><linearGradient id="linear-gradient-8" x1="60.77" y1="52.17" x2="109.13" y2="52.17" xlink:href="#linear-gradient"/><linearGradient id="linear-gradient-9" x1="67.54" y1="47.18" x2="102.54" y2="47.18" xlink:href="#linear-gradient"/></defs><g id="Layer_1-2"><path class="cls-10" d="M84.5,0c33.4,0,62.28,19.38,75.99,47.51H8.51C22.22,19.38,51.1,0,84.5,0"/><path class="cls-10" d="M31.45,150.27h106.1c-14.5,11.71-32.95,18.73-53.05,18.73s-38.55-7.02-53.05-18.73Z"/><path class="cls-10" d="M166.91,103.28c-1.78,7.83-4.65,15.25-8.44,22.08-4.24,7.69-9.66,14.64-16,20.62H26.53c-6.34-5.98-11.76-12.93-16-20.62-3.79-6.83-6.66-14.25-8.44-22.08-1.37-6.04-2.09-12.33-2.09-18.78,0-1.39.03-2.78.1-4.16.01-.26.03-.53.05-.79.56-9.8,2.79-19.14,6.42-27.76h155.86c3.63,8.62,5.86,17.96,6.42,27.76"/><path class="cls-11" d="M83.95,0c33.4,0,62.28,19.38,75.99,47.51H7.96C21.67,19.38,50.55,0,83.95,0"/><path class="cls-1" d="M168.9,80.34H.1c.01-.26.03-.53.05-.79.56-9.8,2.79-19.14,6.42-27.76h155.86c3.63,8.62,5.86,17.96,6.42,27.76"/><path class="cls-6" d="M166.91,103.28H2.09c-1.37-6.04-2.09-12.33-2.09-18.78,0-1.39.03-2.78.1-4.16.01-.26.03-.53.05-.79h168.7"/><path class="cls-3" d="M166.91,103.28c-1.78,7.83-4.65,15.25-8.44,22.08H10.53c-3.79-6.83-6.66-14.25-8.44-22.08h164.82"/><path class="cls-7" d="M158.47,125.36c-4.24,7.69-9.66,14.64-16,20.62H26.53c-6.34-5.98-11.76-12.93-16-20.62h147.94Z"/><path class="cls-9" d="M137.55,150.27c-14.5,11.71-32.95,18.73-53.05,18.73s-38.55-7.02-53.05-18.73h106.1Z"/><path class="cls-2" d="M122.87,106.99l-2.97-7.2h-19.72l-2.97,7.2h-10.01l17.95-40.02h10l17.84,40.02h-10.12ZM110.12,75.94l-6.58,15.78h13.04l-6.46-15.78Z"/><path class="cls-2" d="M50.82,66.97h9.38v31.56h20.12v8.46h-29.5v-40.02Z"/><path class="cls-2" d="M36.3,113.1v3.71h-5.55v14.45h-4.25v-14.45h-5.53v-3.71h15.34Z"/><path class="cls-2" d="M45.38,125.27h-2.46v5.99h-4.26v-18.16h8.85c1.31,0,2.46.25,3.45.77.99.51,1.75,1.23,2.28,2.17.54.93.8,2.01.8,3.22,0,1.38-.36,2.57-1.08,3.56-.72.99-1.73,1.69-3.05,2.1l5.14,6.36h-5.06l-4.62-5.99ZM49.1,117.41c-.49-.45-1.19-.67-2.09-.67h-4.12v5.11h4.12c.92,0,1.62-.22,2.1-.66.48-.44.73-1.07.73-1.88s-.25-1.44-.74-1.89Z"/><path class="cls-2" d="M71.48,131.27l-1.35-3.27h-8.95l-1.35,3.27h-4.54l8.15-18.16h4.54l8.1,18.16h-4.59ZM65.7,117.18l-2.98,7.16h5.92l-2.93-7.16Z"/><path class="cls-2" d="M80.84,130.49c-1.48-.8-2.62-1.91-3.43-3.35s-1.21-3.09-1.21-4.96.41-3.52,1.23-4.97c.82-1.44,1.97-2.56,3.44-3.35,1.47-.79,3.15-1.18,5.03-1.18,2.68,0,4.98.94,6.9,2.83l-2.62,2.62c-1.16-1.11-2.55-1.66-4.18-1.66-1.09,0-2.05.24-2.89.71-.84.48-1.49,1.15-1.95,2.01-.46.87-.69,1.86-.69,2.98s.23,2.12.69,2.98c.46.86,1.11,1.54,1.95,2.01.84.48,1.8.71,2.89.71.87,0,1.7-.16,2.49-.47s1.49-.76,2.08-1.35l2.49,2.78c-1.96,1.89-4.32,2.83-7.08,2.83-1.96,0-3.67-.4-5.15-1.19Z"/><path class="cls-2" d="M111.65,131.27h-5.53l-6.38-7.21v7.21h-4.23v-18.16h4.23v7.11l5.97-7.11h5.24l-7.65,8.9,8.36,9.26Z"/><path class="cls-2" d="M117.38,127.68h10.02v3.58h-14.14v-18.16h13.86v3.55h-9.73v3.68h9.21v3.43h-9.21v3.92Z"/><path class="cls-2" d="M137.26,125.27h-2.46v5.99h-4.26v-18.16h8.85c1.31,0,2.46.25,3.45.77.99.51,1.75,1.23,2.28,2.17.54.93.8,2.01.8,3.22,0,1.38-.36,2.57-1.08,3.56-.72.99-1.73,1.69-3.05,2.1l5.14,6.36h-5.06l-4.62-5.99ZM140.98,117.41c-.49-.45-1.19-.67-2.09-.67h-4.12v5.11h4.12c.92,0,1.62-.22,2.1-.66.48-.44.73-1.07.73-1.88s-.25-1.44-.74-1.89Z"/><circle class="cls-4" cx="84.95" cy="96.87" r="10.25" transform="translate(-33.27 45.63) rotate(-25.32)"/><path class="cls-5" d="M84.95,22.9c-13.35,0-24.18,10.83-24.18,24.18,0,6.61,2.65,12.59,6.94,16.95l16.62,17.13c.34.35.9.35,1.24,0l16.62-17.13c2.15-2.18,3.88-4.77,5.08-7.64,1.2-2.87,1.86-6.01,1.86-9.31,0-13.35-10.83-24.18-24.18-24.18ZM84.95,65.11c-9.95,0-18.02-8.07-18.02-18.02s8.07-18.02,18.02-18.02,18.02,8.07,18.02,18.02-8.07,18.02-18.02,18.02Z"/><ellipse class="cls-8" cx="85.04" cy="47.18" rx="17.5" ry="17"/></g></svg>