<?xml version="1.0" encoding="UTF-8"?><svg id="Layer_2" xmlns="http://www.w3.org/2000/svg" width="424.41" height="169" xmlns:xlink="http://www.w3.org/1999/xlink" viewBox="0 0 424.41 169"><defs><style>.cls-1{fill:url(#linear-gradient-2);}.cls-2{fill:#fff;}.cls-3{fill:url(#linear-gradient-4);}.cls-4{fill:url(#linear-gradient-3);}.cls-5{fill:url(#linear-gradient-5);}.cls-6{fill:url(#linear-gradient-6);}.cls-7{fill:gray;}.cls-8{fill:url(#linear-gradient);}</style><linearGradient id="linear-gradient" x1="8.41" y1="23.76" x2="160.39" y2="23.76" gradientUnits="userSpaceOnUse"><stop offset="0" stop-color="#67349d"/><stop offset="1" stop-color="#e062b5"/></linearGradient><linearGradient id="linear-gradient-2" x1="0" y1="66.06" x2="168.8" y2="66.06" xlink:href="#linear-gradient"/><linearGradient id="linear-gradient-3" x1=".05" y1="91.41" x2="168.9" y2="91.41" xlink:href="#linear-gradient"/><linearGradient id="linear-gradient-4" x1="1.99" y1="114.32" x2="166.81" y2="114.32" xlink:href="#linear-gradient"/><linearGradient id="linear-gradient-5" x1="10.43" y1="135.67" x2="158.37" y2="135.67" xlink:href="#linear-gradient"/><linearGradient id="linear-gradient-6" x1="31.35" y1="159.63" x2="137.45" y2="159.63" xlink:href="#linear-gradient"/></defs><g id="Layer_1-2"><path class="cls-7" d="M8.41,47.51C22.12,19.38,51,0,84.4,0s62.28,19.38,75.99,47.51H8.41"/><path class="cls-7" d="M31.35,150.27h106.1c-14.5,11.71-32.95,18.73-53.05,18.73s-38.55-7.02-53.05-18.73Z"/><path class="cls-7" d="M6.47,51.79h155.86c3.63,8.62,5.86,17.96,6.42,27.76.02.26.04.53.05.79.07,1.38.1,2.77.1,4.16,0,6.45-.72,12.74-2.09,18.78-1.78,7.83-4.65,15.25-8.44,22.08-4.24,7.69-9.66,14.64-16,20.62H26.43c-6.34-5.98-11.76-12.93-16-20.62"/><path class="cls-8" d="M8.41,47.51C22.12,19.38,51,0,84.4,0s62.28,19.38,75.99,47.51H8.41"/><path class="cls-1" d="M6.47,51.79h155.86c3.63,8.62,5.86,17.96,6.42,27.76.02.26.04.53.05.79H0"/><path class="cls-4" d="M.05,79.55h168.7c.02.26.04.53.05.79.07,1.38.1,2.77.1,4.16,0,6.45-.72,12.74-2.09,18.78H1.99"/><path class="cls-3" d="M1.99,103.28h164.82c-1.78,7.83-4.65,15.25-8.44,22.08H10.43"/><path class="cls-5" d="M10.43,125.36h147.94c-4.24,7.69-9.66,14.64-16,20.62H26.43c-6.34-5.98-11.76-12.93-16-20.62"/><path class="cls-6" d="M137.45,150.27c-14.5,11.71-32.95,18.73-53.05,18.73s-38.55-7.02-53.05-18.73h106.1Z"/><path class="cls-2" d="M79.52,86.78l-3.67-8.88h-24.33l-3.67,8.88h-12.34l22.14-49.35h12.34l22,49.35h-12.48ZM63.8,48.5l-8.11,19.46h16.08l-7.97-19.46Z"/><path class="cls-2" d="M11.38,52.43h11.56v38.92h24.82v10.44H11.38v-49.35Z"/><path class="cls-2" d="M94.35,89.22h9.61v45.74h-10.65v-28.62l-13.46,16.46h-2.09l-13.59-16.53v28.68h-10.65v-45.74h9.6l15.62,19.47,15.62-19.47Z"/><path class="cls-2" d="M120.38,135.97c-3.54-1.16-6.6-2.78-9.19-4.88l5.68-7.95c4.14,3.25,8.98,4.88,14.5,4.88,2.76,0,4.96-.47,6.58-1.4s2.44-2.21,2.44-3.81c0-1.51-.76-2.7-2.27-3.54-1.52-.85-3.92-1.45-7.22-1.8-6.37-.71-11.04-2.21-14-4.48-2.96-2.27-4.44-5.52-4.44-9.76,0-2.85.8-5.37,2.41-7.55,1.6-2.18,3.85-3.88,6.75-5.08,2.9-1.2,6.24-1.8,10.02-1.8,3.25,0,6.42.47,9.52,1.4,3.1.94,5.82,2.25,8.19,3.94l-5.15,7.68c-3.65-2.54-7.68-3.81-12.09-3.81-2.72,0-4.89.45-6.52,1.34-1.63.89-2.44,2.09-2.44,3.61s.7,2.61,2.1,3.41,3.75,1.4,7.05,1.8c6.33.71,11.05,2.28,14.17,4.71,3.12,2.43,4.68,5.76,4.68,9.99,0,2.94-.83,5.54-2.47,7.79-1.65,2.25-3.97,3.99-6.95,5.21-2.99,1.22-6.42,1.84-10.29,1.84s-7.52-.58-11.06-1.74Z"/><path d="M185.47,1.86h6.07v20.42h13.02v5.48h-19.09V1.86Z"/><path d="M226.24,9.49v18.28h-5.03l-.37-2.18c-1.55,1.7-3.58,2.55-6.07,2.55-1.7,0-3.21-.4-4.53-1.2-1.32-.8-2.35-1.92-3.09-3.37-.74-1.44-1.11-3.09-1.11-4.94s.37-3.5,1.11-4.94c.74-1.44,1.77-2.56,3.09-3.37s2.83-1.2,4.53-1.2c1.23,0,2.37.22,3.4.65,1.04.43,1.92,1.05,2.66,1.87l.37-2.15h5.03ZM219.29,21.97c.81-.85,1.22-1.97,1.22-3.35s-.41-2.5-1.22-3.35c-.81-.85-1.86-1.28-3.15-1.28s-2.33.43-3.13,1.29c-.8.86-1.2,1.97-1.2,3.33s.4,2.47,1.2,3.33c.8.86,1.84,1.29,3.13,1.29s2.33-.42,3.15-1.28Z"/><path d="M247.31,11.3c1.34,1.48,2.02,3.53,2.02,6.14v10.32h-5.81v-9.99c0-1.18-.3-2.11-.89-2.78s-1.41-1-2.44-1c-1.13,0-2.05.38-2.74,1.15-.69.76-1.04,1.76-1.04,3v9.62h-5.81V9.49h5.03l.37,2.15c.72-.81,1.57-1.44,2.57-1.89,1-.44,2.1-.67,3.31-.67,2.27,0,4.08.74,5.42,2.22Z"/><path d="M272.64,1.86v25.9h-5.03l-.37-2.18c-1.55,1.7-3.58,2.55-6.07,2.55-1.7,0-3.21-.4-4.53-1.2-1.32-.8-2.35-1.92-3.09-3.37-.74-1.44-1.11-3.09-1.11-4.94s.37-3.5,1.11-4.94c.74-1.44,1.77-2.56,3.09-3.37,1.32-.8,2.83-1.2,4.53-1.2,2.24,0,4.13.7,5.66,2.11V1.86h5.81ZM265.68,21.97c.81-.85,1.22-1.97,1.22-3.35s-.41-2.5-1.22-3.35c-.81-.85-1.86-1.28-3.14-1.28s-2.33.43-3.13,1.29c-.8.86-1.2,1.97-1.2,3.33s.4,2.47,1.2,3.33c.8.86,1.84,1.29,3.13,1.29s2.33-.42,3.14-1.28Z"/><path d="M205.48,72.16l-1.92-4.66h-12.76l-1.92,4.66h-6.47l11.62-25.9h6.48l11.54,25.9h-6.55ZM197.23,52.07l-4.25,10.21h8.44l-4.18-10.21Z"/><path d="M217.16,71.41c-1.52-.78-2.69-1.88-3.51-3.31-.83-1.43-1.24-3.11-1.24-5.03s.42-3.57,1.26-5.01c.84-1.44,2.01-2.57,3.51-3.37,1.5-.8,3.24-1.2,5.22-1.2,1.36,0,2.65.24,3.88.72,1.23.48,2.33,1.19,3.29,2.13l-3.22,3.52c-1.04-.96-2.26-1.44-3.66-1.44-1.33,0-2.42.43-3.26,1.28-.84.85-1.26,1.97-1.26,3.35s.41,2.5,1.24,3.35c.83.85,1.92,1.28,3.27,1.28,1.5,0,2.79-.53,3.85-1.59l3.29,3.48c-2.05,2.02-4.49,3.03-7.33,3.03-2.05,0-3.83-.39-5.35-1.17Z"/><path d="M251.29,53.89v26.2h-5.81v-9.69c-1.5,1.43-3.39,2.15-5.66,2.15-1.7,0-3.22-.4-4.55-1.2s-2.37-1.92-3.11-3.37-1.11-3.09-1.11-4.94.37-3.5,1.11-4.94c.74-1.44,1.78-2.57,3.11-3.37,1.33-.8,2.85-1.2,4.55-1.2,2.52,0,4.54.84,6.07,2.52l.37-2.15h5.03ZM244.32,66.36c.8-.86,1.2-1.97,1.2-3.33s-.4-2.47-1.2-3.33-1.84-1.29-3.13-1.29-2.33.43-3.15,1.28c-.81.85-1.22,1.97-1.22,3.35s.41,2.5,1.22,3.35c.81.85,1.86,1.28,3.15,1.28s2.32-.43,3.13-1.29Z"/><path d="M274.05,53.89v18.28h-5.03l-.37-2.11c-.69.81-1.54,1.44-2.53,1.87s-2.09.65-3.27.65c-2.25,0-4.03-.74-5.37-2.22-1.33-1.48-2-3.53-2-6.14v-10.32h5.81v9.99c0,1.18.29,2.11.87,2.78.58.67,1.38,1,2.39,1,1.11,0,2-.39,2.68-1.17.68-.78,1.02-1.78,1.02-3.01v-9.58h5.81Z"/><path d="M278.87,51.19c-.63-.59-.94-1.34-.94-2.26s.32-1.7.96-2.29c.64-.59,1.46-.89,2.44-.89s1.8.3,2.44.89c.64.59.96,1.36.96,2.29s-.31,1.67-.94,2.26-1.45.89-2.46.89-1.83-.3-2.46-.89ZM278.41,53.89h5.81v18.28h-5.81v-18.28Z"/><path d="M287.25,70.2l2.22-4c.89.54,1.92.96,3.09,1.26,1.17.3,2.34.44,3.5.44,1.6,0,2.41-.43,2.41-1.29,0-.44-.22-.78-.67-1-.44-.22-1.18-.37-2.22-.44-2.32-.12-4.16-.7-5.53-1.74s-2.05-2.39-2.05-4.07c0-1.83.74-3.27,2.22-4.35,1.48-1.07,3.48-1.61,5.99-1.61,1.43,0,2.79.17,4.09.52,1.29.35,2.41.83,3.35,1.44l-2.26,3.88c-1.38-.79-3.02-1.18-4.92-1.18s-2.81.44-2.81,1.33c0,.37.19.65.57.85.38.2,1.03.35,1.94.44,2.61.2,4.61.79,5.98,1.78,1.37.99,2.05,2.37,2.05,4.14,0,1.88-.75,3.35-2.26,4.42-1.5,1.07-3.59,1.61-6.25,1.61-3.23,0-6.04-.81-8.44-2.44Z"/><path d="M307.77,51.19c-.63-.59-.94-1.34-.94-2.26s.32-1.7.96-2.29c.64-.59,1.46-.89,2.44-.89s1.8.3,2.44.89c.64.59.96,1.36.96,2.29s-.31,1.67-.94,2.26-1.45.89-2.46.89-1.83-.3-2.46-.89ZM307.31,53.89h5.81v18.28h-5.81v-18.28Z"/><path d="M330.58,71.46c-1.43.72-3.05,1.07-4.85,1.07-2,0-3.58-.56-4.74-1.68-1.16-1.12-1.74-2.93-1.74-5.42v-6.92h-3.11v-4.62h3.11v-4.55l5.77-.63v5.18h4.55v4.62h-4.55v6.92c0,.74.18,1.29.55,1.65s.88.54,1.52.54c.71,0,1.42-.17,2.11-.52l1.37,4.37Z"/><path d="M333.63,51.19c-.63-.59-.94-1.34-.94-2.26s.32-1.7.96-2.29c.64-.59,1.46-.89,2.44-.89s1.8.3,2.44.89c.64.59.96,1.36.96,2.29s-.31,1.67-.94,2.26-1.45.89-2.46.89-1.83-.3-2.46-.89ZM333.17,53.89h5.81v18.28h-5.81v-18.28Z"/><path d="M347.03,71.37c-1.52-.8-2.68-1.92-3.5-3.35-.81-1.43-1.22-3.1-1.22-5s.41-3.56,1.22-5c.81-1.43,1.98-2.55,3.5-3.35,1.52-.8,3.29-1.2,5.31-1.2s3.8.4,5.33,1.2c1.53.8,2.7,1.92,3.51,3.35.81,1.43,1.22,3.1,1.22,5s-.41,3.56-1.22,5c-.81,1.43-1.99,2.55-3.51,3.35-1.53.8-3.31,1.2-5.33,1.2s-3.79-.4-5.31-1.2ZM355.44,66.36c.79-.86,1.18-1.97,1.18-3.33s-.39-2.47-1.18-3.33c-.79-.86-1.83-1.29-3.11-1.29s-2.28.43-3.07,1.29-1.18,1.97-1.18,3.33.39,2.47,1.18,3.33,1.81,1.29,3.07,1.29,2.32-.43,3.11-1.29Z"/><path d="M382.44,55.7c1.34,1.48,2.02,3.53,2.02,6.14v10.32h-5.81v-9.99c0-1.18-.3-2.11-.89-2.77s-1.41-1-2.44-1c-1.13,0-2.05.38-2.74,1.15-.69.77-1.04,1.76-1.04,3v9.62h-5.81v-18.28h5.03l.37,2.15c.71-.81,1.57-1.44,2.57-1.89,1-.44,2.1-.67,3.31-.67,2.27,0,4.08.74,5.42,2.22Z"/><path d="M208.59,90.66h5.44v25.9h-6.03v-16.21l-7.62,9.32h-1.18l-7.7-9.36v16.24h-6.03v-25.9h5.44l8.84,11.03,8.84-11.03Z"/><path d="M237.75,98.29v18.28h-5.03l-.37-2.18c-1.55,1.7-3.58,2.55-6.07,2.55-1.7,0-3.21-.4-4.53-1.2-1.32-.8-2.35-1.92-3.09-3.37-.74-1.44-1.11-3.09-1.11-4.94s.37-3.5,1.11-4.94c.74-1.44,1.77-2.56,3.09-3.37,1.32-.8,2.83-1.2,4.53-1.2,1.23,0,2.37.22,3.4.65,1.04.43,1.92,1.05,2.66,1.87l.37-2.15h5.03ZM230.79,110.77c.81-.85,1.22-1.97,1.22-3.35s-.41-2.5-1.22-3.35c-.81-.85-1.86-1.28-3.14-1.28s-2.33.43-3.13,1.29c-.8.86-1.2,1.97-1.2,3.33s.4,2.47,1.2,3.33c.8.86,1.84,1.29,3.13,1.29s2.33-.42,3.14-1.28Z"/><path d="M258.82,100.1c1.34,1.48,2.02,3.53,2.02,6.14v10.32h-5.81v-9.99c0-1.18-.3-2.11-.89-2.78s-1.41-1-2.44-1c-1.13,0-2.05.38-2.74,1.15s-1.04,1.76-1.04,3v9.62h-5.81v-18.28h5.03l.37,2.15c.71-.81,1.57-1.44,2.57-1.89,1-.44,2.1-.67,3.31-.67,2.27,0,4.08.74,5.42,2.22Z"/><path d="M284.15,98.29v18.28h-5.03l-.37-2.18c-1.55,1.7-3.58,2.55-6.07,2.55-1.7,0-3.21-.4-4.53-1.2-1.32-.8-2.35-1.92-3.09-3.37-.74-1.44-1.11-3.09-1.11-4.94s.37-3.5,1.11-4.94c.74-1.44,1.77-2.56,3.09-3.37s2.83-1.2,4.53-1.2c1.23,0,2.37.22,3.4.65,1.04.43,1.92,1.05,2.66,1.87l.37-2.15h5.03ZM277.19,110.77c.81-.85,1.22-1.97,1.22-3.35s-.41-2.5-1.22-3.35c-.81-.85-1.86-1.28-3.15-1.28s-2.33.43-3.13,1.29c-.8.86-1.2,1.97-1.2,3.33s.4,2.47,1.2,3.33c.8.86,1.84,1.29,3.13,1.29s2.33-.42,3.15-1.28Z"/><path d="M306.59,115.92c.68,1,1.02,2.15,1.02,3.46,0,1.53-.42,2.88-1.26,4.05-.84,1.17-2.02,2.07-3.55,2.7-1.53.63-3.31.94-5.33.94s-3.7-.32-5.18-.96c-1.48-.64-2.62-1.55-3.42-2.74-.8-1.18-1.2-2.55-1.2-4.11,0-.4.01-.69.04-.89h5.59c-.05,1.21.29,2.15,1.02,2.81.73.67,1.78,1,3.16,1,1.23,0,2.23-.28,3-.83.76-.55,1.15-1.29,1.15-2.2s-.35-1.66-1.05-2.17c-.7-.5-1.71-.76-3.02-.76-2.02,0-3.79-.38-5.31-1.15-1.52-.76-2.69-1.84-3.51-3.24-.83-1.39-1.24-3.02-1.24-4.87s.43-3.36,1.28-4.75c.85-1.39,2.04-2.48,3.55-3.26,1.52-.78,3.25-1.17,5.2-1.17,1.5,0,2.89.3,4.14.89l2.15-2.66,4.25,3.07-2.44,2.85c1.23,1.41,1.85,3.08,1.85,5.03,0,1.36-.33,2.61-.98,3.75-.65,1.15-1.57,2.09-2.76,2.83,1.23.57,2.19,1.35,2.87,2.35ZM300.61,110.13c.79-.79,1.18-1.84,1.18-3.14s-.39-2.35-1.17-3.13-1.82-1.17-3.13-1.17-2.32.39-3.11,1.17c-.79.78-1.18,1.82-1.18,3.13s.39,2.33,1.18,3.13c.79.8,1.83,1.2,3.11,1.2s2.32-.39,3.11-1.18Z"/><path d="M325.22,99.01c1.46.75,2.57,1.81,3.35,3.18.78,1.37,1.17,2.97,1.17,4.79,0,.59-.06,1.32-.18,2.18h-13.43c.17.94.68,1.7,1.52,2.28.84.58,1.91.87,3.22.87.91,0,1.8-.14,2.66-.41s1.6-.65,2.22-1.15l3.03,3.26c-1.04.96-2.26,1.7-3.68,2.22-1.42.52-2.93.78-4.53.78-2.12,0-3.96-.39-5.51-1.17-1.55-.78-2.75-1.88-3.59-3.31s-1.26-3.12-1.26-5.07.41-3.54,1.24-5c.83-1.46,1.98-2.58,3.46-3.38,1.48-.8,3.19-1.2,5.14-1.2s3.72.38,5.18,1.13ZM317.39,103.36c-.73.59-1.14,1.42-1.24,2.48h8.07c-.07-1.06-.46-1.89-1.17-2.48s-1.65-.89-2.83-.89-2.1.3-2.83.89Z"/><path d="M360.7,99.91c1.33,1.36,2,3.22,2,5.59v11.06h-5.81v-10.32c0-1.08-.25-1.93-.76-2.53-.51-.6-1.21-.91-2.13-.91-1.01,0-1.81.35-2.4,1.04-.59.69-.89,1.6-.89,2.74v9.99h-5.77v-10.32c0-1.08-.25-1.93-.74-2.53s-1.2-.91-2.11-.91c-1.01,0-1.82.35-2.42,1.04-.6.69-.91,1.6-.91,2.74v9.99h-5.81v-18.28h5.03l.33,2.04c.64-.79,1.41-1.39,2.31-1.81.9-.42,1.87-.63,2.9-.63,1.18,0,2.24.25,3.18.76.94.51,1.68,1.2,2.22,2.09,1.48-1.9,3.58-2.85,6.29-2.85,2.32,0,4.14.68,5.48,2.04Z"/><path d="M380.83,99.01c1.46.75,2.57,1.81,3.35,3.18.78,1.37,1.17,2.97,1.17,4.79,0,.59-.06,1.32-.18,2.18h-13.43c.17.94.68,1.7,1.52,2.28.84.58,1.91.87,3.22.87.91,0,1.8-.14,2.66-.41s1.6-.65,2.22-1.15l3.03,3.26c-1.04.96-2.26,1.7-3.68,2.22-1.42.52-2.93.78-4.53.78-2.12,0-3.96-.39-5.51-1.17-1.55-.78-2.75-1.88-3.59-3.31s-1.26-3.12-1.26-5.07.41-3.54,1.24-5c.83-1.46,1.98-2.58,3.46-3.38,1.48-.8,3.19-1.2,5.14-1.2s3.72.38,5.18,1.13ZM373,103.36c-.73.59-1.14,1.42-1.24,2.48h8.07c-.07-1.06-.46-1.89-1.17-2.48s-1.65-.89-2.83-.89-2.1.3-2.83.89Z"/><path d="M405.26,100.1c1.34,1.48,2.02,3.53,2.02,6.14v10.32h-5.81v-9.99c0-1.18-.3-2.11-.89-2.78s-1.41-1-2.44-1c-1.13,0-2.05.38-2.74,1.15s-1.04,1.76-1.04,3v9.62h-5.81v-18.28h5.03l.37,2.15c.71-.81,1.57-1.44,2.57-1.89,1-.44,2.1-.67,3.31-.67,2.27,0,4.08.74,5.42,2.22Z"/><path d="M424.41,115.86c-1.43.71-3.05,1.07-4.85,1.07-2,0-3.58-.56-4.74-1.68-1.16-1.12-1.74-2.93-1.74-5.42v-6.92h-3.11v-4.62h3.11v-4.55l5.77-.63v5.18h4.55v4.62h-4.55v6.92c0,.74.18,1.29.55,1.65.37.36.88.54,1.52.54.71,0,1.42-.17,2.11-.52l1.37,4.37Z"/><path d="M188.93,160.6c-1.96-.64-3.66-1.54-5.09-2.7l3.15-4.4c2.29,1.8,4.97,2.7,8.03,2.7,1.53,0,2.74-.26,3.64-.78.9-.52,1.35-1.22,1.35-2.11,0-.84-.42-1.49-1.26-1.96-.84-.47-2.17-.8-4-1-3.53-.39-6.11-1.22-7.75-2.48-1.64-1.26-2.46-3.06-2.46-5.4,0-1.58.44-2.97,1.33-4.18.89-1.21,2.13-2.15,3.74-2.81,1.6-.67,3.45-1,5.55-1,1.8,0,3.56.26,5.27.78,1.71.52,3.22,1.25,4.53,2.18l-2.85,4.25c-2.02-1.41-4.25-2.11-6.7-2.11-1.5,0-2.71.25-3.61.74-.9.49-1.35,1.16-1.35,2s.39,1.44,1.17,1.89c.78.44,2.08.78,3.9,1,3.5.4,6.12,1.26,7.84,2.61s2.59,3.19,2.59,5.53c0,1.63-.46,3.07-1.37,4.31-.91,1.25-2.2,2.21-3.85,2.89-1.65.68-3.55,1.02-5.7,1.02s-4.16-.32-6.12-.96Z"/><path d="M221.17,142.69h6.29l-11.4,26.2h-6.18l3.55-8.18-7.1-18.02h6.25l2.11,5.77,2,5.96,2.15-5.96,2.33-5.77Z"/><path d="M227.91,159l2.22-4c.89.54,1.92.96,3.09,1.26,1.17.3,2.34.44,3.5.44,1.6,0,2.4-.43,2.4-1.29,0-.44-.22-.78-.67-1-.44-.22-1.18-.37-2.22-.44-2.32-.12-4.16-.7-5.53-1.74s-2.05-2.39-2.05-4.07c0-1.83.74-3.28,2.22-4.35,1.48-1.07,3.48-1.61,5.99-1.61,1.43,0,2.79.17,4.09.52,1.29.35,2.41.83,3.35,1.44l-2.26,3.88c-1.38-.79-3.02-1.18-4.92-1.18s-2.81.44-2.81,1.33c0,.37.19.65.57.85.38.2,1.03.35,1.94.44,2.61.2,4.61.79,5.98,1.78,1.37.99,2.05,2.37,2.05,4.14,0,1.87-.75,3.35-2.26,4.42-1.5,1.07-3.59,1.61-6.25,1.61-3.23,0-6.04-.81-8.44-2.44Z"/><path d="M261.06,160.26c-1.43.71-3.05,1.07-4.85,1.07-2,0-3.58-.56-4.74-1.68-1.16-1.12-1.74-2.93-1.74-5.42v-6.92h-3.11v-4.62h3.11v-4.55l5.77-.63v5.18h4.55v4.62h-4.55v6.92c0,.74.19,1.29.56,1.65.37.36.88.54,1.52.54.71,0,1.42-.17,2.11-.52l1.37,4.37Z"/><path d="M277.52,143.41c1.46.75,2.57,1.81,3.35,3.18.78,1.37,1.17,2.97,1.17,4.79,0,.59-.06,1.32-.18,2.18h-13.43c.17.94.68,1.7,1.52,2.28.84.58,1.91.87,3.22.87.91,0,1.8-.14,2.66-.41s1.6-.65,2.22-1.15l3.03,3.26c-1.04.96-2.26,1.7-3.68,2.22-1.42.52-2.93.78-4.53.78-2.12,0-3.96-.39-5.51-1.17-1.55-.78-2.75-1.88-3.59-3.31s-1.26-3.12-1.26-5.07.41-3.54,1.24-5c.83-1.46,1.98-2.58,3.46-3.38,1.48-.8,3.19-1.2,5.14-1.2s3.72.38,5.18,1.13ZM269.7,147.76c-.73.59-1.14,1.42-1.24,2.48h8.07c-.07-1.06-.46-1.89-1.17-2.48s-1.65-.89-2.83-.89-2.1.3-2.83.89Z"/><path d="M313.01,144.31c1.33,1.36,2,3.22,2,5.59v11.06h-5.81v-10.32c0-1.08-.25-1.93-.76-2.53-.51-.6-1.21-.91-2.13-.91-1.01,0-1.81.35-2.4,1.04-.59.69-.89,1.6-.89,2.74v9.99h-5.77v-10.32c0-1.08-.25-1.93-.74-2.53s-1.2-.91-2.11-.91c-1.01,0-1.82.35-2.42,1.04-.6.69-.91,1.6-.91,2.74v9.99h-5.81v-18.28h5.03l.33,2.04c.64-.79,1.41-1.39,2.31-1.81.9-.42,1.87-.63,2.9-.63,1.18,0,2.24.25,3.18.76.94.51,1.68,1.2,2.22,2.09,1.48-1.9,3.58-2.85,6.29-2.85,2.32,0,4.14.68,5.48,2.04Z"/></g></svg>