<?xml version="1.0" encoding="UTF-8"?><svg id="Layer_2" xmlns="http://www.w3.org/2000/svg" width="169" height="169" xmlns:xlink="http://www.w3.org/1999/xlink" viewBox="0 0 169 169"><defs><style>.cls-1{fill:url(#linear-gradient-2);}.cls-2{fill:#fff;}.cls-3{fill:url(#linear-gradient-4);}.cls-4{fill:url(#linear-gradient-3);}.cls-5{fill:url(#linear-gradient-5);}.cls-6{fill:url(#linear-gradient-6);}.cls-7{fill:gray;}.cls-8{fill:url(#linear-gradient);}</style><linearGradient id="linear-gradient" x1="8.51" y1="23.76" x2="160.49" y2="23.76" gradientUnits="userSpaceOnUse"><stop offset="0" stop-color="#67349d"/><stop offset="1" stop-color="#e062b5"/></linearGradient><linearGradient id="linear-gradient-2" x1=".1" y1="66.06" x2="168.9" y2="66.06" xlink:href="#linear-gradient"/><linearGradient id="linear-gradient-3" x1="0" y1="91.41" x2="169" y2="91.41" xlink:href="#linear-gradient"/><linearGradient id="linear-gradient-4" x1="2.09" y1="114.32" x2="166.91" y2="114.32" xlink:href="#linear-gradient"/><linearGradient id="linear-gradient-5" x1="10.53" y1="135.67" x2="158.47" y2="135.67" xlink:href="#linear-gradient"/><linearGradient id="linear-gradient-6" x1="31.45" y1="159.63" x2="137.55" y2="159.63" xlink:href="#linear-gradient"/></defs><g id="Layer_1-2"><path class="cls-7" d="M160.49,47.51H8.51C22.22,19.38,51.1,0,84.5,0s62.28,19.38,75.99,47.51Z"/><path class="cls-7" d="M31.45,150.27h106.1c-14.5,11.71-32.95,18.73-53.05,18.73s-38.55-7.02-53.05-18.73Z"/><path class="cls-7" d="M169,84.5c0,6.45-.72,12.74-2.09,18.78-1.78,7.83-4.65,15.25-8.44,22.08-4.24,7.69-9.66,14.64-16,20.62H26.53c-6.34-5.98-11.76-12.93-16-20.62-3.79-6.83-6.66-14.25-8.44-22.08-1.37-6.04-2.09-12.33-2.09-18.78,0-1.39.03-2.78.1-4.16.01-.26.03-.53.05-.79.56-9.8,2.79-19.14,6.42-27.76h155.86c3.63,8.62,5.86,17.96,6.42,27.76.02.26.04.53.05.79.07,1.38.1,2.77.1,4.16Z"/><path class="cls-8" d="M160.49,47.51H8.51C22.22,19.38,51.1,0,84.5,0s62.28,19.38,75.99,47.51Z"/><path class="cls-1" d="M168.9,80.34H.1c.01-.26.03-.53.05-.79.56-9.8,2.79-19.14,6.42-27.76h155.86c3.63,8.62,5.86,17.96,6.42,27.76.02.26.04.53.05.79Z"/><path class="cls-4" d="M169,84.5c0,6.45-.72,12.74-2.09,18.78H2.09c-1.37-6.04-2.09-12.33-2.09-18.78,0-1.39.03-2.78.1-4.16.01-.26.03-.53.05-.79h168.7c.02.26.04.53.05.79.07,1.38.1,2.77.1,4.16Z"/><path class="cls-3" d="M166.91,103.28c-1.78,7.83-4.65,15.25-8.44,22.08H10.53c-3.79-6.83-6.66-14.25-8.44-22.08h164.82Z"/><path class="cls-5" d="M158.47,125.36c-4.24,7.69-9.66,14.64-16,20.62H26.53c-6.34-5.98-11.76-12.93-16-20.62h147.94Z"/><path class="cls-6" d="M137.55,150.27c-14.5,11.71-32.95,18.73-53.05,18.73s-38.55-7.02-53.05-18.73h106.1Z"/><path class="cls-2" d="M79.62,86.78l-3.67-8.88h-24.33l-3.67,8.88h-12.34l22.14-49.35h12.34l22,49.35h-12.48ZM63.9,48.5l-8.11,19.46h16.08l-7.97-19.46Z"/><path class="cls-2" d="M11.48,52.43h11.56v38.92h24.82v10.44H11.48v-49.35Z"/><path class="cls-2" d="M94.45,89.22h9.61v45.74h-10.65v-28.62l-13.46,16.46h-2.09l-13.59-16.53v28.68h-10.65v-45.74h9.6l15.62,19.47,15.62-19.47Z"/><path class="cls-2" d="M120.48,135.97c-3.54-1.16-6.6-2.78-9.19-4.88l5.68-7.95c4.14,3.25,8.98,4.88,14.5,4.88,2.76,0,4.96-.47,6.58-1.4s2.44-2.21,2.44-3.81c0-1.51-.76-2.7-2.27-3.54-1.52-.85-3.92-1.45-7.22-1.8-6.37-.71-11.04-2.21-14-4.48-2.96-2.27-4.44-5.52-4.44-9.76,0-2.85.8-5.37,2.41-7.55,1.6-2.18,3.85-3.88,6.75-5.08,2.9-1.2,6.24-1.8,10.02-1.8,3.25,0,6.42.47,9.52,1.4,3.1.94,5.82,2.25,8.19,3.94l-5.15,7.68c-3.65-2.54-7.68-3.81-12.09-3.81-2.72,0-4.89.45-6.52,1.34-1.63.89-2.44,2.09-2.44,3.61s.7,2.61,2.1,3.41,3.75,1.4,7.05,1.8c6.33.71,11.05,2.28,14.17,4.71,3.12,2.43,4.68,5.76,4.68,9.99,0,2.94-.83,5.54-2.47,7.79-1.65,2.25-3.97,3.99-6.95,5.21-2.99,1.22-6.42,1.84-10.29,1.84s-7.52-.58-11.06-1.74Z"/></g></svg>