<?xml version="1.0" encoding="UTF-8"?><svg id="Layer_2" xmlns="http://www.w3.org/2000/svg" width="411.12" height="169" xmlns:xlink="http://www.w3.org/1999/xlink" viewBox="0 0 411.12 169"><defs><style>.cls-1{fill:url(#linear-gradient-2);}.cls-2{fill:#fff;}.cls-3{fill:url(#linear-gradient-4);}.cls-4{fill:url(#linear-gradient-7);}.cls-4,.cls-5{stroke:#fff;stroke-miterlimit:10;}.cls-6{fill:url(#linear-gradient-3);}.cls-7{fill:url(#linear-gradient-5);}.cls-8{fill:url(#linear-gradient-9);}.cls-9{fill:url(#linear-gradient-6);}.cls-10{fill:gray;}.cls-5{fill:url(#linear-gradient-8);stroke-width:2px;}.cls-11{fill:url(#linear-gradient);}</style><linearGradient id="linear-gradient" x1="7.96" y1="23.76" x2="159.94" y2="23.76" gradientUnits="userSpaceOnUse"><stop offset="0" stop-color="#67349d"/><stop offset="1" stop-color="#e062b5"/></linearGradient><linearGradient id="linear-gradient-2" x1=".1" y1="66.06" x2="168.9" y2="66.06" xlink:href="#linear-gradient"/><linearGradient id="linear-gradient-3" x1="0" y1="91.41" x2="169" y2="91.41" xlink:href="#linear-gradient"/><linearGradient id="linear-gradient-4" x1="2.09" y1="114.32" x2="166.91" y2="114.32" xlink:href="#linear-gradient"/><linearGradient id="linear-gradient-5" x1="10.53" y1="135.67" x2="158.47" y2="135.67" xlink:href="#linear-gradient"/><linearGradient id="linear-gradient-6" x1="31.45" y1="159.63" x2="137.55" y2="159.63" xlink:href="#linear-gradient"/><linearGradient id="linear-gradient-7" x1="84.95" y1="107.12" x2="84.95" y2="86.63" gradientTransform="translate(49.59 -27.02) rotate(25.32)" xlink:href="#linear-gradient"/><linearGradient id="linear-gradient-8" x1="60.77" y1="52.17" x2="109.13" y2="52.17" xlink:href="#linear-gradient"/><linearGradient id="linear-gradient-9" x1="67.63" y1="47.36" x2="102.63" y2="47.36" xlink:href="#linear-gradient"/></defs><g id="Layer_1-2"><path class="cls-10" d="M160.49,47.51H8.51C22.22,19.38,51.1,0,84.5,0s62.28,19.38,75.99,47.51Z"/><path class="cls-10" d="M31.45,150.27h106.1c-14.5,11.71-32.95,18.73-53.05,18.73s-38.55-7.02-53.05-18.73Z"/><path class="cls-10" d="M169,84.5c0,6.45-.72,12.74-2.09,18.78-1.78,7.83-4.65,15.25-8.44,22.08-4.24,7.69-9.66,14.64-16,20.62H26.53c-6.34-5.98-11.76-12.93-16-20.62-3.79-6.83-6.66-14.25-8.44-22.08-1.37-6.04-2.09-12.33-2.09-18.78,0-1.39.03-2.78.1-4.16.01-.26.03-.53.05-.79.56-9.8,2.79-19.14,6.42-27.76h155.86c3.63,8.62,5.86,17.96,6.42,27.76.02.26.04.53.05.79.07,1.38.1,2.77.1,4.16Z"/><path class="cls-11" d="M159.94,47.51H7.96C21.67,19.38,50.55,0,83.95,0s62.28,19.38,75.99,47.51Z"/><path class="cls-1" d="M168.9,80.34H.1c.01-.26.03-.53.05-.79.56-9.8,2.79-19.14,6.42-27.76h155.86c3.63,8.62,5.86,17.96,6.42,27.76.02.26.04.53.05.79Z"/><path class="cls-6" d="M169,84.5c0,6.45-.72,12.74-2.09,18.78H2.09c-1.37-6.04-2.09-12.33-2.09-18.78,0-1.39.03-2.78.1-4.16.01-.26.03-.53.05-.79h168.7c.02.26.04.53.05.79.07,1.38.1,2.77.1,4.16Z"/><path class="cls-3" d="M166.91,103.28c-1.78,7.83-4.65,15.25-8.44,22.08H10.53c-3.79-6.83-6.66-14.25-8.44-22.08h164.82Z"/><path class="cls-7" d="M158.47,125.36c-4.24,7.69-9.66,14.64-16,20.62H26.53c-6.34-5.98-11.76-12.93-16-20.62h147.94Z"/><path class="cls-9" d="M137.55,150.27c-14.5,11.71-32.95,18.73-53.05,18.73s-38.55-7.02-53.05-18.73h106.1Z"/><path class="cls-2" d="M122.87,106.99l-2.97-7.2h-19.72l-2.97,7.2h-10.01l17.95-40.02h10l17.84,40.02h-10.12ZM110.12,75.94l-6.58,15.78h13.04l-6.46-15.78Z"/><path class="cls-2" d="M50.82,66.97h9.38v31.56h20.12v8.46h-29.5v-40.02Z"/><path class="cls-2" d="M36.3,113.1v3.71h-5.55v14.45h-4.25v-14.45h-5.53v-3.71h15.34Z"/><path class="cls-2" d="M45.38,125.27h-2.46v5.99h-4.26v-18.16h8.85c1.31,0,2.46.25,3.45.77.99.51,1.75,1.23,2.28,2.17.54.93.8,2.01.8,3.22,0,1.38-.36,2.57-1.08,3.56-.72.99-1.73,1.69-3.05,2.1l5.14,6.36h-5.06l-4.62-5.99ZM49.1,117.41c-.49-.45-1.19-.67-2.09-.67h-4.12v5.11h4.12c.92,0,1.62-.22,2.1-.66.48-.44.73-1.07.73-1.88s-.25-1.44-.74-1.89Z"/><path class="cls-2" d="M71.48,131.27l-1.35-3.27h-8.95l-1.35,3.27h-4.54l8.15-18.16h4.54l8.1,18.16h-4.59ZM65.7,117.18l-2.98,7.16h5.92l-2.93-7.16Z"/><path class="cls-2" d="M80.84,130.49c-1.48-.8-2.62-1.91-3.43-3.35s-1.21-3.09-1.21-4.96.41-3.52,1.23-4.97c.82-1.44,1.97-2.56,3.44-3.35,1.47-.79,3.15-1.18,5.03-1.18,2.68,0,4.98.94,6.9,2.83l-2.62,2.62c-1.16-1.11-2.55-1.66-4.18-1.66-1.09,0-2.05.24-2.89.71-.84.48-1.49,1.15-1.95,2.01-.46.87-.69,1.86-.69,2.98s.23,2.12.69,2.98c.46.86,1.11,1.54,1.95,2.01.84.48,1.8.71,2.89.71.87,0,1.7-.16,2.49-.47s1.49-.76,2.08-1.35l2.49,2.78c-1.96,1.89-4.32,2.83-7.08,2.83-1.96,0-3.67-.4-5.15-1.19Z"/><path class="cls-2" d="M111.65,131.27h-5.53l-6.38-7.21v7.21h-4.23v-18.16h4.23v7.11l5.97-7.11h5.24l-7.65,8.9,8.36,9.26Z"/><path class="cls-2" d="M117.38,127.68h10.02v3.58h-14.14v-18.16h13.86v3.55h-9.73v3.68h9.21v3.43h-9.21v3.92Z"/><path class="cls-2" d="M137.26,125.27h-2.46v5.99h-4.26v-18.16h8.85c1.31,0,2.46.25,3.45.77.99.51,1.75,1.23,2.28,2.17.54.93.8,2.01.8,3.22,0,1.38-.36,2.57-1.08,3.56-.72.99-1.73,1.69-3.05,2.1l5.14,6.36h-5.06l-4.62-5.99ZM140.98,117.41c-.49-.45-1.19-.67-2.09-.67h-4.12v5.11h4.12c.92,0,1.62-.22,2.1-.66.48-.44.73-1.07.73-1.88s-.25-1.44-.74-1.89Z"/><circle class="cls-4" cx="84.95" cy="96.87" r="10.25" transform="translate(-33.27 45.63) rotate(-25.32)"/><path class="cls-5" d="M84.95,22.9c-13.35,0-24.18,10.83-24.18,24.18,0,6.61,2.65,12.59,6.94,16.95l16.62,17.13c.34.35.9.35,1.24,0l16.62-17.13c2.15-2.18,3.88-4.77,5.08-7.64,1.2-2.87,1.86-6.01,1.86-9.31,0-13.35-10.83-24.18-24.18-24.18ZM84.95,65.11c-9.95,0-18.02-8.07-18.02-18.02s8.07-18.02,18.02-18.02,18.02,8.07,18.02,18.02-8.07,18.02-18.02,18.02Z"/><path d="M187.14,5.86h5.69v19.14h12.21v5.13h-17.9V5.86Z"/><path d="M225.36,13.01v17.13h-4.72l-.35-2.05c-1.46,1.6-3.35,2.39-5.69,2.39-1.6,0-3.01-.38-4.25-1.13-1.24-.75-2.2-1.8-2.9-3.16-.69-1.35-1.04-2.9-1.04-4.63s.35-3.28,1.04-4.63c.69-1.35,1.66-2.4,2.9-3.16s2.65-1.13,4.25-1.13c1.16,0,2.22.2,3.19.61.97.4,1.8.99,2.5,1.75l.35-2.01h4.72ZM218.84,24.71c.76-.8,1.14-1.84,1.14-3.14s-.38-2.34-1.14-3.14c-.76-.8-1.75-1.2-2.95-1.2s-2.18.41-2.93,1.21c-.75.81-1.13,1.85-1.13,3.12s.38,2.31,1.13,3.12c.75.81,1.73,1.21,2.93,1.21s2.18-.4,2.95-1.2Z"/><path d="M245.11,14.71c1.26,1.39,1.89,3.31,1.89,5.76v9.68h-5.44v-9.36c0-1.11-.28-1.98-.83-2.6s-1.32-.94-2.29-.94c-1.06,0-1.92.36-2.57,1.08-.65.72-.97,1.65-.97,2.81v9.02h-5.44V13.01h4.72l.35,2.01c.67-.76,1.47-1.35,2.41-1.77.94-.42,1.97-.62,3.1-.62,2.13,0,3.82.69,5.08,2.08Z"/><path d="M268.85,5.86v24.28h-4.72l-.35-2.05c-1.46,1.6-3.35,2.39-5.69,2.39-1.6,0-3.01-.38-4.25-1.13-1.24-.75-2.2-1.8-2.9-3.16-.69-1.35-1.04-2.9-1.04-4.63s.35-3.28,1.04-4.63c.69-1.35,1.66-2.4,2.9-3.16,1.24-.75,2.65-1.13,4.25-1.13,2.1,0,3.87.66,5.31,1.98V5.86h5.44ZM262.33,24.71c.76-.8,1.14-1.84,1.14-3.14s-.38-2.34-1.14-3.14c-.76-.8-1.75-1.2-2.95-1.2s-2.18.41-2.93,1.21c-.75.81-1.13,1.85-1.13,3.12s.38,2.31,1.13,3.12c.75.81,1.73,1.21,2.93,1.21s2.18-.4,2.95-1.2Z"/><path d="M205.91,71.76l-1.8-4.37h-11.96l-1.8,4.37h-6.07l10.89-24.28h6.07l10.82,24.28h-6.14ZM198.17,52.92l-3.99,9.57h7.91l-3.92-9.57Z"/><path d="M216.85,71.05c-1.42-.73-2.52-1.76-3.29-3.1-.78-1.34-1.16-2.91-1.16-4.72s.39-3.35,1.18-4.7c.79-1.35,1.88-2.4,3.29-3.16,1.41-.75,3.04-1.13,4.89-1.13,1.27,0,2.48.23,3.64.68,1.16.45,2.18,1.12,3.09,1.99l-3.02,3.3c-.97-.9-2.12-1.35-3.43-1.35-1.25,0-2.27.4-3.05,1.2-.79.8-1.18,1.84-1.18,3.14s.39,2.34,1.16,3.14c.77.8,1.8,1.2,3.07,1.2,1.41,0,2.61-.5,3.61-1.49l3.09,3.26c-1.92,1.9-4.21,2.84-6.87,2.84-1.92,0-3.59-.36-5.01-1.09Z"/><path d="M248.84,54.62v24.55h-5.44v-9.09c-1.41,1.34-3.18,2.01-5.31,2.01-1.6,0-3.02-.38-4.27-1.13s-2.22-1.8-2.91-3.16-1.04-2.9-1.04-4.63.35-3.28,1.04-4.63c.69-1.35,1.67-2.4,2.91-3.16,1.25-.75,2.67-1.13,4.27-1.13,2.36,0,4.25.79,5.69,2.36l.35-2.01h4.72ZM242.31,66.31c.75-.81,1.13-1.85,1.13-3.12s-.38-2.31-1.13-3.12-1.73-1.21-2.93-1.21-2.18.4-2.95,1.2c-.76.8-1.14,1.84-1.14,3.14s.38,2.34,1.14,3.14c.76.8,1.75,1.2,2.95,1.2s2.18-.4,2.93-1.21Z"/><path d="M270.17,54.62v17.13h-4.72l-.35-1.98c-.65.76-1.44,1.35-2.38,1.75s-1.96.61-3.07.61c-2.1,0-3.78-.69-5.03-2.08-1.25-1.39-1.87-3.31-1.87-5.76v-9.68h5.45v9.36c0,1.11.27,1.98.81,2.6.54.62,1.29.94,2.24.94,1.04,0,1.88-.36,2.51-1.09.64-.73.95-1.67.95-2.83v-8.98h5.44Z"/><path d="M274.7,52.09c-.59-.55-.88-1.26-.88-2.12s.3-1.6.9-2.15c.6-.56,1.36-.83,2.29-.83s1.69.28,2.29.83c.6.55.9,1.27.9,2.15s-.29,1.56-.88,2.12-1.36.83-2.31.83-1.72-.28-2.31-.83ZM274.26,54.62h5.44v17.13h-5.44v-17.13Z"/><path d="M282.55,69.92l2.08-3.75c.83.51,1.8.9,2.9,1.18,1.1.28,2.19.42,3.28.42,1.5,0,2.25-.4,2.25-1.21,0-.42-.21-.73-.62-.94-.42-.21-1.11-.35-2.08-.42-2.17-.12-3.9-.66-5.18-1.63s-1.93-2.24-1.93-3.82c0-1.71.69-3.07,2.08-4.08,1.39-1.01,3.26-1.51,5.62-1.51,1.34,0,2.62.16,3.83.49,1.21.32,2.26.78,3.14,1.35l-2.12,3.64c-1.3-.74-2.83-1.11-4.61-1.11s-2.64.42-2.64,1.25c0,.35.18.61.54.8.36.19.96.32,1.82.42,2.45.18,4.32.74,5.6,1.67,1.28.92,1.92,2.22,1.92,3.88,0,1.76-.7,3.14-2.12,4.14-1.41,1.01-3.36,1.51-5.86,1.51-3.03,0-5.67-.76-7.91-2.29Z"/><path d="M301.78,52.09c-.59-.55-.88-1.26-.88-2.12s.3-1.6.9-2.15c.6-.56,1.36-.83,2.29-.83s1.69.28,2.29.83c.6.55.9,1.27.9,2.15s-.29,1.56-.88,2.12-1.36.83-2.31.83-1.72-.28-2.31-.83ZM301.35,54.62h5.44v17.13h-5.44v-17.13Z"/><path d="M323.16,71.1c-1.34.67-2.86,1.01-4.54,1.01-1.87,0-3.35-.53-4.44-1.58-1.09-1.05-1.63-2.75-1.63-5.08v-6.49h-2.91v-4.34h2.91v-4.27l5.41-.59v4.86h4.27v4.34h-4.27v6.49c0,.69.17,1.21.52,1.54s.82.5,1.42.5c.67,0,1.33-.16,1.98-.49l1.28,4.09Z"/><path d="M326.03,52.09c-.59-.55-.88-1.26-.88-2.12s.3-1.6.9-2.15c.6-.56,1.36-.83,2.29-.83s1.69.28,2.29.83c.6.55.9,1.27.9,2.15s-.29,1.56-.88,2.12-1.36.83-2.31.83-1.72-.28-2.31-.83ZM325.59,54.62h5.45v17.13h-5.45v-17.13Z"/><path d="M338.58,71.01c-1.42-.75-2.51-1.8-3.28-3.14-.76-1.34-1.15-2.9-1.15-4.68s.38-3.34,1.15-4.68c.76-1.34,1.86-2.39,3.28-3.14,1.42-.75,3.08-1.13,4.98-1.13s3.56.38,4.99,1.13c1.43.75,2.53,1.8,3.29,3.14.76,1.34,1.14,2.9,1.14,4.68s-.38,3.34-1.14,4.68c-.76,1.34-1.86,2.39-3.29,3.14-1.43.75-3.1,1.13-4.99,1.13s-3.56-.38-4.98-1.13ZM346.47,66.31c.74-.81,1.11-1.85,1.11-3.12s-.37-2.31-1.11-3.12c-.74-.81-1.71-1.21-2.91-1.21s-2.14.4-2.88,1.21-1.11,1.85-1.11,3.12.37,2.31,1.11,3.12,1.7,1.21,2.88,1.21,2.17-.4,2.91-1.21Z"/><path d="M371.77,56.32c1.26,1.39,1.89,3.31,1.89,5.76v9.68h-5.44v-9.36c0-1.11-.28-1.98-.83-2.6-.55-.62-1.32-.94-2.29-.94-1.06,0-1.92.36-2.57,1.07-.65.72-.97,1.65-.97,2.81v9.02h-5.45v-17.13h4.72l.35,2.01c.67-.76,1.47-1.35,2.41-1.77.94-.42,1.97-.62,3.1-.62,2.13,0,3.82.69,5.08,2.08Z"/><path d="M208.82,89.1h5.1v24.28h-5.65v-15.19l-7.14,8.74h-1.11l-7.21-8.77v15.23h-5.65v-24.28h5.1l8.29,10.34,8.29-10.34Z"/><path d="M236.15,96.24v17.13h-4.72l-.35-2.05c-1.46,1.6-3.35,2.39-5.69,2.39-1.6,0-3.01-.38-4.25-1.13-1.24-.75-2.2-1.8-2.9-3.16-.69-1.35-1.04-2.9-1.04-4.63s.35-3.28,1.04-4.63c.69-1.35,1.66-2.4,2.9-3.16,1.24-.75,2.65-1.13,4.25-1.13,1.16,0,2.22.2,3.19.61.97.4,1.8.99,2.5,1.75l.35-2.01h4.72ZM229.63,107.95c.76-.8,1.14-1.84,1.14-3.14s-.38-2.34-1.14-3.14c-.76-.8-1.75-1.2-2.95-1.2s-2.18.41-2.93,1.21c-.75.81-1.13,1.85-1.13,3.12s.38,2.31,1.13,3.12c.75.81,1.73,1.21,2.93,1.21s2.18-.4,2.95-1.2Z"/><path d="M255.9,97.94c1.26,1.39,1.89,3.31,1.89,5.76v9.68h-5.44v-9.36c0-1.11-.28-1.98-.83-2.6s-1.32-.94-2.29-.94c-1.06,0-1.92.36-2.57,1.08s-.97,1.65-.97,2.81v9.02h-5.45v-17.13h4.72l.35,2.01c.67-.76,1.47-1.35,2.41-1.77.94-.42,1.97-.62,3.1-.62,2.13,0,3.82.69,5.08,2.08Z"/><path d="M279.64,96.24v17.13h-4.72l-.35-2.05c-1.46,1.6-3.35,2.39-5.69,2.39-1.6,0-3.01-.38-4.25-1.13-1.24-.75-2.2-1.8-2.9-3.16-.69-1.35-1.04-2.9-1.04-4.63s.35-3.28,1.04-4.63c.69-1.35,1.66-2.4,2.9-3.16s2.65-1.13,4.25-1.13c1.16,0,2.22.2,3.19.61.97.4,1.8.99,2.5,1.75l.35-2.01h4.72ZM273.12,107.95c.76-.8,1.14-1.84,1.14-3.14s-.38-2.34-1.14-3.14c-.76-.8-1.75-1.2-2.95-1.2s-2.18.41-2.93,1.21c-.75.81-1.13,1.85-1.13,3.12s.38,2.31,1.13,3.12c.75.81,1.73,1.21,2.93,1.21s2.18-.4,2.95-1.2Z"/><path d="M300.67,112.77c.64.94.95,2.02.95,3.24,0,1.43-.39,2.7-1.18,3.8-.79,1.1-1.9,1.94-3.33,2.53-1.43.59-3.1.88-4.99.88s-3.47-.3-4.86-.9c-1.39-.6-2.46-1.46-3.21-2.57-.75-1.11-1.13-2.39-1.13-3.85,0-.37.01-.65.03-.83h5.24c-.05,1.13.27,2.01.95,2.64.68.62,1.67.94,2.96.94,1.16,0,2.09-.26,2.81-.78.72-.52,1.07-1.21,1.07-2.06s-.33-1.56-.99-2.03c-.66-.47-1.6-.71-2.83-.71-1.9,0-3.56-.36-4.98-1.08-1.42-.72-2.52-1.73-3.29-3.03-.78-1.31-1.16-2.83-1.16-4.56s.4-3.15,1.2-4.46c.8-1.31,1.91-2.32,3.33-3.05,1.42-.73,3.05-1.09,4.87-1.09,1.41,0,2.7.28,3.88.83l2.01-2.5,3.99,2.88-2.29,2.67c1.16,1.32,1.73,2.89,1.73,4.72,0,1.27-.31,2.44-.92,3.52-.61,1.08-1.47,1.96-2.58,2.65,1.16.53,2.05,1.27,2.69,2.2ZM295.07,107.34c.74-.74,1.11-1.72,1.11-2.95s-.36-2.2-1.09-2.93-1.71-1.09-2.93-1.09-2.17.36-2.91,1.09c-.74.73-1.11,1.71-1.11,2.93s.37,2.18,1.11,2.93c.74.75,1.71,1.13,2.91,1.13s2.17-.37,2.91-1.11Z"/><path d="M318.14,96.92c1.36.71,2.41,1.7,3.14,2.98.73,1.28,1.09,2.78,1.09,4.49,0,.55-.06,1.24-.17,2.05h-12.59c.16.88.64,1.59,1.42,2.13.79.54,1.79.82,3.02.82.85,0,1.69-.13,2.5-.38s1.5-.61,2.08-1.08l2.84,3.05c-.97.9-2.12,1.6-3.45,2.08-1.33.49-2.75.73-4.25.73-1.99,0-3.71-.36-5.17-1.09-1.46-.73-2.58-1.76-3.36-3.1s-1.18-2.92-1.18-4.75.39-3.32,1.16-4.68c.77-1.36,1.86-2.42,3.24-3.17,1.39-.75,2.99-1.13,4.82-1.13s3.49.35,4.86,1.06ZM310.8,100.99c-.68.55-1.07,1.33-1.16,2.32h7.56c-.07-.99-.43-1.77-1.09-2.32s-1.54-.83-2.65-.83-1.97.28-2.65.83Z"/><path d="M351.39,97.77c1.25,1.27,1.87,3.02,1.87,5.24v10.37h-5.44v-9.68c0-1.02-.24-1.81-.71-2.38-.47-.57-1.14-.85-1.99-.85-.95,0-1.7.32-2.25.97-.56.65-.83,1.5-.83,2.57v9.36h-5.41v-9.68c0-1.02-.23-1.81-.69-2.38s-1.12-.85-1.98-.85c-.95,0-1.71.32-2.27.97-.57.65-.85,1.5-.85,2.57v9.36h-5.45v-17.13h4.72l.31,1.91c.6-.74,1.32-1.31,2.17-1.7.84-.39,1.75-.59,2.72-.59,1.11,0,2.1.24,2.98.71.88.47,1.57,1.13,2.08,1.96,1.39-1.78,3.35-2.67,5.9-2.67,2.17,0,3.88.64,5.13,1.91Z"/><path d="M370.26,96.92c1.36.71,2.41,1.7,3.14,2.98.73,1.28,1.09,2.78,1.09,4.49,0,.55-.06,1.24-.17,2.05h-12.59c.16.88.64,1.59,1.42,2.13.79.54,1.79.82,3.02.82.85,0,1.69-.13,2.5-.38s1.5-.61,2.08-1.08l2.84,3.05c-.97.9-2.12,1.6-3.45,2.08-1.33.49-2.75.73-4.25.73-1.99,0-3.71-.36-5.17-1.09-1.46-.73-2.58-1.76-3.36-3.1s-1.18-2.92-1.18-4.75.39-3.32,1.16-4.68c.77-1.36,1.86-2.42,3.24-3.17,1.39-.75,2.99-1.13,4.82-1.13s3.49.35,4.86,1.06ZM362.93,100.99c-.68.55-1.07,1.33-1.16,2.32h7.56c-.07-.99-.43-1.77-1.09-2.32s-1.54-.83-2.65-.83-1.97.28-2.65.83Z"/><path d="M393.17,97.94c1.26,1.39,1.89,3.31,1.89,5.76v9.68h-5.44v-9.36c0-1.11-.28-1.98-.83-2.6s-1.32-.94-2.29-.94c-1.06,0-1.92.36-2.57,1.08s-.97,1.65-.97,2.81v9.02h-5.45v-17.13h4.72l.35,2.01c.67-.76,1.47-1.35,2.41-1.77.94-.42,1.97-.62,3.1-.62,2.13,0,3.82.69,5.08,2.08Z"/><path d="M411.12,112.72c-1.34.67-2.86,1.01-4.54,1.01-1.87,0-3.35-.53-4.44-1.58-1.09-1.05-1.63-2.75-1.63-5.08v-6.49h-2.91v-4.34h2.91v-4.27l5.41-.59v4.86h4.27v4.34h-4.27v6.49c0,.69.17,1.21.52,1.54.35.34.82.5,1.42.5.67,0,1.33-.16,1.98-.49l1.28,4.09Z"/><path d="M190.39,154.65c-1.84-.6-3.43-1.44-4.77-2.53l2.95-4.13c2.15,1.69,4.66,2.53,7.53,2.53,1.43,0,2.57-.24,3.42-.73.84-.49,1.27-1.15,1.27-1.98,0-.79-.39-1.4-1.18-1.84-.79-.44-2.03-.75-3.75-.94-3.31-.37-5.73-1.14-7.27-2.32-1.54-1.18-2.31-2.87-2.31-5.06,0-1.48.42-2.79,1.25-3.92.83-1.13,2-2.01,3.5-2.64,1.5-.62,3.24-.94,5.2-.94,1.69,0,3.33.24,4.94.73,1.61.49,3.02,1.17,4.25,2.05l-2.67,3.99c-1.9-1.32-3.99-1.98-6.28-1.98-1.41,0-2.54.23-3.38.69-.84.46-1.27,1.09-1.27,1.87s.36,1.35,1.09,1.77c.73.42,1.95.73,3.66.94,3.28.37,5.73,1.19,7.35,2.45s2.43,2.99,2.43,5.18c0,1.53-.43,2.87-1.28,4.04-.85,1.17-2.06,2.07-3.61,2.7-1.55.64-3.33.95-5.34.95s-3.9-.3-5.74-.9Z"/><path d="M220.61,137.86h5.9l-10.68,24.55h-5.79l3.33-7.66-6.66-16.89h5.86l1.98,5.41,1.87,5.58,2.01-5.58,2.18-5.41Z"/><path d="M226.92,153.15l2.08-3.75c.83.51,1.8.9,2.9,1.18,1.1.28,2.19.42,3.28.42,1.5,0,2.25-.4,2.25-1.21,0-.42-.21-.73-.62-.94-.42-.21-1.11-.35-2.08-.42-2.17-.12-3.9-.66-5.18-1.63s-1.93-2.24-1.93-3.81c0-1.71.69-3.07,2.08-4.08,1.39-1.01,3.26-1.51,5.62-1.51,1.34,0,2.62.16,3.83.49,1.21.32,2.26.78,3.14,1.35l-2.12,3.64c-1.29-.74-2.83-1.11-4.61-1.11s-2.64.42-2.64,1.25c0,.35.18.61.54.8.36.18.96.32,1.82.42,2.45.19,4.32.74,5.6,1.67,1.28.93,1.93,2.22,1.93,3.88,0,1.76-.71,3.14-2.12,4.14-1.41,1.01-3.36,1.51-5.86,1.51-3.03,0-5.67-.76-7.91-2.29Z"/><path d="M258,154.33c-1.34.67-2.86,1.01-4.54,1.01-1.87,0-3.35-.53-4.44-1.58-1.09-1.05-1.63-2.75-1.63-5.08v-6.49h-2.91v-4.34h2.91v-4.27l5.41-.59v4.86h4.27v4.34h-4.27v6.49c0,.69.17,1.21.52,1.54.35.34.82.5,1.42.5.67,0,1.33-.16,1.98-.49l1.28,4.09Z"/><path d="M273.43,138.54c1.36.71,2.41,1.7,3.14,2.98.73,1.28,1.09,2.78,1.09,4.49,0,.55-.06,1.24-.17,2.05h-12.59c.16.88.64,1.59,1.42,2.13.79.54,1.79.82,3.02.82.85,0,1.69-.13,2.5-.38s1.5-.61,2.08-1.08l2.84,3.05c-.97.9-2.12,1.6-3.45,2.08-1.33.49-2.75.73-4.25.73-1.99,0-3.71-.36-5.17-1.09-1.46-.73-2.58-1.76-3.36-3.1s-1.18-2.92-1.18-4.75.39-3.32,1.16-4.68c.77-1.36,1.86-2.42,3.24-3.17,1.39-.75,2.99-1.13,4.82-1.13s3.49.35,4.86,1.06ZM266.1,142.61c-.68.55-1.07,1.33-1.16,2.32h7.56c-.07-.99-.43-1.77-1.09-2.32s-1.54-.83-2.65-.83-1.97.28-2.65.83Z"/><path d="M306.69,139.39c1.25,1.27,1.87,3.02,1.87,5.24v10.37h-5.44v-9.68c0-1.02-.24-1.81-.71-2.38-.47-.57-1.14-.85-1.99-.85-.95,0-1.7.32-2.25.97-.56.65-.83,1.5-.83,2.57v9.36h-5.41v-9.68c0-1.02-.23-1.81-.69-2.38s-1.12-.85-1.98-.85c-.95,0-1.71.32-2.27.97-.57.65-.85,1.5-.85,2.57v9.36h-5.45v-17.13h4.72l.31,1.91c.6-.74,1.32-1.31,2.17-1.7.84-.39,1.75-.59,2.72-.59,1.11,0,2.1.24,2.98.71.88.47,1.57,1.13,2.08,1.96,1.39-1.78,3.35-2.67,5.9-2.67,2.17,0,3.88.64,5.13,1.91Z"/><circle class="cls-8" cx="85.13" cy="47.36" r="17.5"/></g></svg>